<?xml version="1.0" encoding="utf-8"?>
<!-- Generator: Adobe Illustrator 28.1.0, SVG Export Plug-In . SVG Version: 6.00 Build 0)  -->
<svg version="1.1" xmlns="http://www.w3.org/2000/svg" xmlns:xlink="http://www.w3.org/1999/xlink" x="0px" y="0px"
	 viewBox="0 0 288 144" style="enable-background:new 0 0 288 144;" xml:space="preserve">
<style type="text/css">
	.st0{fill:none;}
	.st1{fill:#FFFFFF;}
	.st2{fill-rule:evenodd;clip-rule:evenodd;fill:#FFFFFF;}
</style>
<g id="Layer_1">
</g>
<g id="Isolation_Mode">
	<rect class="st0" width="288" height="144"/>
	<g>
		<polygon class="st1" points="260.9,54.71 262.68,54.71 262.68,59.26 263.76,59.26 263.76,54.71 265.54,54.71 265.54,53.81 
			260.9,53.81 		"/>
		<polygon class="st1" points="270.96,53.81 269.56,57.71 268.16,53.81 266.6,53.81 266.6,59.26 267.6,59.26 267.6,54.86 
			269.13,59.26 270,59.26 271.51,54.86 271.51,59.26 272.51,59.26 272.51,53.81 		"/>
	</g>
	<path class="st2" d="M20.5,54.03c-1.01,0-1.48,0.47-1.48,1.51c0,4.46-0.02,7.12-0.02,11.6c0,1.3,0.66,1.64,1.49,1.64
		c1.55,0,2.66,0.01,4.62,0.01h0h0l0.01,0c2.25,0.01,4.51,0.01,6.16,0.01l0.08,0c2.11,0.03,2.11,0.03,2.11,2.16v44.88
		c0,1.78,0.05,1.83,1.84,1.83h15.87c1.17,0,1.75,0,2.04-0.29c0.29-0.29,0.29-0.86,0.29-2.01v0c0-14.97,0-29.91-0.03-44.88
		c0-1.29,0.36-1.75,1.7-1.72c1.63,0.04,3.25,0.04,4.87,0.04h0h0h0h0c1.35,0,2.69-0.01,4.04,0.02c1.26,0.03,1.81-0.33,1.78-1.7
		c-0.05-3.86-0.05-7.74,0-11.6c0.03-1.15-0.36-1.61-1.56-1.59c-1.56,0.03-3.12,0.02-4.67,0.01h0c-1.55-0.01-3.1-0.01-4.65,0.01
		c-1.04,0.03-1.51-0.25-1.48-1.37c0.03-1.14,0.02-2.27,0.01-3.41v0c-0.01-1.14-0.01-2.27,0.01-3.41c0.14-5.28,2.91-8.35,8.09-9.19
		c2.63-0.41,5.18-0.16,7.73,0.44c1.01,0.25,1.45-0.03,1.75-1.04c0.78-2.68,1.58-5.34,2.38-8.01c0.56-1.86,1.12-3.72,1.67-5.59
		c0.52-1.7,0.49-1.75-1.26-2.22c-5.48-1.45-11.02-1.81-16.67-1.15c-11.62,1.4-20.65,9.58-23,20.99c-0.69,3.4-0.71,6.87-0.74,10.33v0
		l0,0.4c0,0.43,0,0.81,0,1.13c0.01,1.08,0.01,1.61-0.25,1.86c-0.25,0.25-0.74,0.24-1.71,0.23l0,0c-0.34,0-0.73-0.01-1.2,0
		c-1.48,0.01-3.57,0.02-5.66,0.03h0h0C22.88,54.01,21.91,54.02,20.5,54.03z M146.88,119.1c-2.59,0-4.21-0.38-4.76-0.51
		c-1.36-0.3-2.72-0.6-4.03-1.1c-7.57-2.93-12.69-8.37-15.55-15.76c-4.39-11.38-4.33-22.88,1.21-33.88
		c5.4-10.73,14.45-15.98,26.57-15.43c5.65,0.27,10.72,2.16,14.53,6.73c0.35-0.41,0.32-0.84,0.29-1.24v0
		c-0.01-0.11-0.01-0.21-0.01-0.32V26.62c0-2.11,0-2.13,2.11-2.13h16.01c1.84,0,1.89,0.05,1.89,1.81v89.51
		c0,1.72-0.08,1.81-1.75,1.81c-1.15,0-2.3,0-3.45,0c-3.45-0.01-6.91-0.01-10.36,0.03c-1.29,0.03-1.78-0.47-1.92-1.67
		c-0.18-1.7-0.41-3.39-0.65-5.17v0l0-0.01c-0.08-0.63-0.17-1.27-0.26-1.93c-0.45,0.53-0.85,1.05-1.25,1.56
		c-0.83,1.06-1.61,2.06-2.59,2.9c-3.37,2.93-7.34,4.36-11.65,5.39C150.48,118.88,148.39,119.1,146.88,119.1z M165.12,85.83v-6.18
		c0.03-3.31-1.26-6.13-3.51-8.48c-5.51-5.72-15.24-4.19-19.16,2.98c-2.71,4.93-2.88,10.26-2.33,15.65c0.33,3.17,1.45,6.08,3.37,8.67
		c2.77,3.72,7.92,5.5,12.58,4.32c4.72-1.2,8.06-4.87,8.8-9.55c0.27-1.71,0.25-3.44,0.23-5C165.09,87.39,165.08,86.57,165.12,85.83z
		 M221.96,118.77c-1.65-0.17-4.93-0.91-7.69-2.02c-10.77-4.32-17.05-12.31-19.08-23.59c-1.4-7.72-0.74-15.35,2.52-22.58
		c4.63-10.26,12.94-15.82,23.85-17.71c6.53-1.12,13.02-0.88,19.3,1.37c9.46,3.37,15.79,9.85,18.73,19.37
		c2.96,9.61,2.52,19.21-1.95,28.3c-4.63,9.5-12.69,14.66-22.91,16.66c0,0-3.12,0.52-5.93,0.52
		C226,119.1,223.61,118.94,221.96,118.77z M240.59,85.75c0.08-4.05-0.52-7.99-2.22-11.69c-1.37-2.98-3.34-5.42-6.55-6.6
		c-5.65-2.08-11.71,0.71-14.34,6.73c-2.39,5.42-2.69,11.08-1.84,16.86c0.44,2.96,1.34,5.75,2.96,8.29
		c4.14,6.57,13.3,6.95,17.74,1.34c1.07-1.34,1.89-2.76,2.5-4.35C240.13,92.89,240.68,89.36,240.59,85.75z M99.1,46.49
		c-5.98,0.03-10.8-4.9-10.83-11.03c-0.03-6.16,4.96-11.33,10.83-11.25c6.06,0.08,10.94,5.2,10.88,11.38
		C109.91,41.56,105,46.49,99.1,46.49z M110.12,100.83c-0.01-4.95-0.01-9.89-0.03-14.83c-0.03-10.02-0.05-20.06-0.03-30.07
		c0-1.12-0.16-1.78-1.51-1.78c0,0-27.94,0-27.94,0.05c-1.15,0-1.54,0.44-1.51,1.61c0.05,3.8,0.05,7.64,0,11.44
		c-0.03,1.31,0.47,1.7,1.7,1.7l8.2-0.05c1.89,0,1.89,0,1.89,1.97c0,14.75,0.03,29.49,0.05,44.24v0.01c0,0.14,0,0.27,0.01,0.41
		c0.01,0.27,0.01,0.55-0.01,0.82c-0.05,0.9,0.33,1.34,1.23,1.31c0.88-0.02,1.77-0.01,2.66-0.01c0.44,0,0.88,0.01,1.32,0.01
		l7.76-0.02c0.17,0.03,0.37,0.03,0.6,0.02c0.12-0.01,0.23-0.01,0.35-0.02l3.3-0.01c-0.01,0-0.01,0-0.02,0c0.02,0,0.04,0,0.07,0
		c0.95,0,1.43,0,1.67-0.24c0.25-0.24,0.25-0.74,0.25-1.73C110.14,110.73,110.13,105.78,110.12,100.83z"/>
</g>
</svg>
